<?xml version="1.0" encoding="UTF-8"?>
<svg xmlns="http://www.w3.org/2000/svg" xmlns:xlink="http://www.w3.org/1999/xlink" viewBox="0 0 841.89 595.28">
  <defs>
    <style>
      .cls-1 {
        fill: url(#linear-gradient-2);
      }

      .cls-2, .cls-3 {
        fill: #fff;
      }

      .cls-4, .cls-5 {
        fill: #e487b5;
      }

      .cls-6 {
        fill: url(#linear-gradient-15);
      }

      .cls-3 {
        opacity: .3;
      }

      .cls-7 {
        fill: url(#linear-gradient-14);
      }

      .cls-8 {
        fill: url(#linear-gradient-6);
      }

      .cls-9 {
        isolation: isolate;
      }

      .cls-10 {
        fill: url(#linear-gradient-11);
      }

      .cls-11 {
        fill: url(#linear-gradient-10);
      }

      .cls-12, .cls-13 {
        fill: #442c79;
      }

      .cls-14 {
        fill: #181923;
      }

      .cls-15 {
        fill: url(#linear-gradient-16);
      }

      .cls-16 {
        fill: url(#linear-gradient-5);
      }

      .cls-17 {
        fill: url(#radial-gradient);
        opacity: .5;
      }

      .cls-18 {
        clip-path: url(#clippath);
      }

      .cls-19 {
        fill: none;
      }

      .cls-20 {
        fill: url(#linear-gradient-7);
      }

      .cls-21 {
        fill: url(#linear-gradient-9);
      }

      .cls-22 {
        fill: url(#linear-gradient-3);
      }

      .cls-23 {
        fill: url(#linear-gradient);
      }

      .cls-5, .cls-13 {
        mix-blend-mode: multiply;
      }

      .cls-24 {
        fill: url(#linear-gradient-4);
      }

      .cls-25 {
        fill: url(#linear-gradient-8);
      }

      .cls-26 {
        fill: url(#linear-gradient-12);
      }

      .cls-27 {
        fill: url(#linear-gradient-13);
      }
    </style>
    <linearGradient id="linear-gradient" x1="519.32" y1="202.4" x2="456.48" y2="298.49" gradientUnits="userSpaceOnUse">
      <stop offset="0" stop-color="#855aa5"/>
      <stop offset="1" stop-color="#62aee0"/>
    </linearGradient>
    <radialGradient id="radial-gradient" cx="344.17" cy="517.53" fx="344.17" fy="517.53" r="231.03" gradientUnits="userSpaceOnUse">
      <stop offset="0" stop-color="#f89a45"/>
      <stop offset="1" stop-color="#181923" stop-opacity="0"/>
    </radialGradient>
    <linearGradient id="linear-gradient-2" x1="377.86" y1="502.86" x2="453.49" y2="502.86" gradientTransform="translate(-75.82 267.36) rotate(-39.02)" xlink:href="#linear-gradient"/>
    <linearGradient id="linear-gradient-3" x1="382.8" y1="530.39" x2="458.43" y2="530.39" gradientTransform="translate(-83.88 203.96) rotate(-30.26)" xlink:href="#linear-gradient"/>
    <linearGradient id="linear-gradient-4" x1="348.54" y1="223.97" x2="386.45" y2="223.97" gradientUnits="userSpaceOnUse">
      <stop offset="0" stop-color="#f89a45"/>
      <stop offset="1" stop-color="#9b4c9d"/>
    </linearGradient>
    <linearGradient id="linear-gradient-5" x1="414.05" y1="259.93" x2="363.45" y2="339.21" xlink:href="#linear-gradient-4"/>
    <linearGradient id="linear-gradient-6" x1="345.45" y1="246.55" x2="365.92" y2="246.55" gradientTransform="translate(299.09 -182.52) rotate(47.76)" xlink:href="#linear-gradient"/>
    <linearGradient id="linear-gradient-7" x1="254.1" y1="318.55" x2="294.73" y2="318.55" gradientTransform="translate(11.9 29.67) rotate(-19.46)" xlink:href="#linear-gradient-4"/>
    <linearGradient id="linear-gradient-8" x1="341.75" y1="214.75" x2="351.48" y2="214.75" xlink:href="#linear-gradient-4"/>
    <clipPath id="clippath">
      <path class="cls-19" d="m369.27,264.31h14.07v4.02s16.08-5.12,27.77-2.92c11.69,2.19,19.36,12.61,19.36,12.61l10.6-4.93s18.27,21.01,13.88,35.26l-110.89,63.03-11.69-52.25s-15.16-18.09-9.54-28.68c7.02-13.24,47-21.01,47-21.01l-.55-5.12Z"/>
    </clipPath>
    <linearGradient id="linear-gradient-9" x1="269.91" y1="279.02" x2="318.11" y2="279.02" gradientTransform="translate(62.84 57.53) rotate(-26.54)" xlink:href="#linear-gradient-4"/>
    <linearGradient id="linear-gradient-10" x1="338.38" y1="129.62" x2="380.46" y2="129.62" gradientTransform="translate(-7.62 -3.1) rotate(7.75)" xlink:href="#linear-gradient"/>
    <linearGradient id="linear-gradient-11" x1="285.66" y1="371.37" x2="361.86" y2="371.37" xlink:href="#linear-gradient"/>
    <linearGradient id="linear-gradient-12" x1="263.77" y1="333.44" x2="283.77" y2="333.44" xlink:href="#linear-gradient"/>
    <linearGradient id="linear-gradient-13" x1="240.54" y1="336.9" x2="248.21" y2="336.9" gradientTransform="translate(-7.52 -4.18) rotate(-7.28)" xlink:href="#linear-gradient"/>
    <linearGradient id="linear-gradient-14" x1="523.58" y1="317.84" x2="569.75" y2="317.84" xlink:href="#linear-gradient-4"/>
    <linearGradient id="linear-gradient-15" x1="544.39" y1="254.8" x2="561.96" y2="254.8" xlink:href="#linear-gradient-4"/>
    <linearGradient id="linear-gradient-16" x1="526.16" y1="244.32" x2="534.94" y2="244.32" xlink:href="#linear-gradient-4"/>
  </defs>
  <g class="cls-9">
    <g id="Layer_1" data-name="Layer 1">
      <g>
        <g>
          <circle class="cls-23" cx="479.61" cy="263.12" r="40.76"/>
          <path class="cls-2" d="m519.68,255.61c-4.91,2.61-10.82,4.92-14.63,3.51-7.49-2.78-1.46-13.29-6.2-16.77-4.75-3.47-17.54-.73-19.23-7.03-1.05-3.9,8.59-7.48,16.09-9.65,12.29,5.28,21.46,16.44,23.97,29.95Z"/>
          <path class="cls-2" d="m519.31,272.39c-4.2,18.04-20.37,31.48-39.69,31.48-11.39,0-21.69-4.67-29.08-12.2,1.56-5.81,6.1-19.15,15.06-20.93,11.51-2.28,15.35,5.72,25.02,3.91,9.69-1.8,13.52-9.66,20.28-9.29,3.88.21,5.47,4.1,8.41,7.03Z"/>
          <path class="cls-2" d="m466.97,263.07c-5.77-.12-17.97,7.72-26.6,11.08-.98-3.51-1.51-7.21-1.51-11.03,0-17.98,11.65-33.24,27.8-38.66,5.27,6.25-1.5,9.36-1.33,15.6.18,6.39,9.64,2.82,12.31,7.9,2.68,5.07-1.35,15.3-10.66,15.12Z"/>
        </g>
        <circle class="cls-17" cx="393.22" cy="393.53" r="89.2"/>
        <g>
          <path class="cls-4" d="m443.05,275.53l9.98-16.45c.51-.84,1.42-1.35,2.4-1.35h0c1.92,0,3.27,1.88,2.67,3.7l-2.6,7.81,18.55-9.36c.84-.42,1.84-.34,2.6.21h0c1.43,1.03,1.38,3.17-.1,4.14l-9,5.86,17.13-6.28c1.11-.41,2.36-.02,3.04.95h0c.86,1.23.51,2.93-.77,3.72l-15.18,9.35,15.42-4.01c1.61-.42,3.28.46,3.84,2.04h0c.57,1.62-.23,3.4-1.81,4.05l-15.07,6.15,6.41-.12c1.5-.03,2.6,1.42,2.17,2.85h0c-.22.74-.81,1.31-1.55,1.5l-28.76,7.64-9.34-22.39Z"/>
          <path class="cls-5" d="m443.05,275.53s14.02,4.35,14.14,21.11l-4.8,1.28-9.34-22.39Z"/>
          <g>
            <path class="cls-1" d="m603.91,385.85l-58.76,47.61-21.62-26.68,39.46-31.98c13.87-3.59,26.4,1.63,33.84,6.05,4.46,2.64,7.09,4.99,7.09,4.99Z"/>
            <path class="cls-2" d="m603.91,385.85l-58.76,47.61-5.25-6.48,56.92-46.13c4.46,2.64,7.09,4.99,7.09,4.99Z"/>
            <path class="cls-12" d="m580.83,368.39l-16.18,13.11c-.33.27-.81.22-1.08-.11-.27-.33-.22-.81.11-1.08l16.18-13.11c.33-.27.81-.22,1.08.11.27.33.22.81-.11,1.08Z"/>
            <path class="cls-12" d="m584.74,373.22l-16.18,13.11c-.33.27-.81.22-1.08-.11-.27-.33-.22-.81.11-1.08l16.18-13.11c.33-.27.81-.22,1.08.11.27.33.22.81-.11,1.08Z"/>
          </g>
          <g>
            <path class="cls-22" d="m587.98,445.88l-65.32,38.11-17.31-29.66,43.87-25.59c14.25-1.43,25.84,5.64,32.52,11.13,4,3.29,6.24,6.02,6.24,6.02Z"/>
            <path class="cls-2" d="m587.98,445.88l-65.32,38.11-4.2-7.21,63.28-36.92c4,3.29,6.24,6.02,6.24,6.02Z"/>
            <path class="cls-12" d="m567.83,425.11l-17.99,10.49c-.37.21-.84.09-1.05-.28-.21-.37-.09-.84.28-1.05l17.99-10.5c.37-.21.84-.09,1.05.28.21.37.09.84-.28,1.05Z"/>
            <path class="cls-12" d="m570.96,430.48l-17.99,10.49c-.37.21-.84.09-1.05-.28-.21-.37-.09-.84.28-1.05l17.99-10.5c.37-.21.84-.09,1.05.28.21.37.09.84-.28,1.05Z"/>
          </g>
          <path class="cls-12" d="m372.1,219s2.01-8.04,0-13.7c-2.01-5.66-6.18-1.28-6.18-1.28,0,0-1.5-2.83-4.97-2.47-3.47.37-3.9,4.11-3.9,4.11,0,0-4.32-1.46-7.15.46-2.83,1.92-1.64,5.94-1.64,5.94,0,0-5.02-.09-6.49,4.75-1.46,4.84,3.75,9.41,9.5,10.87l20.83-8.68Z"/>
          <rect class="cls-4" x="370.69" y="249.97" width="10.28" height="24.53"/>
          <path class="cls-12" d="m344.06,371.37s8.77,40.01,40.56,38.91c31.79-1.1,75.27-33.98,75.27-33.98l43.11,80.02,50.42-30.33-15.35-30.65,28.86-23.98s-61.84-69.24-83.35-72.16c-21.51-2.92-62.34,28.29-62.34,28.29l-77.18,43.87Z"/>
          <path class="cls-5" d="m380.96,259.77v4.36s-6.51,5.32-10.28,1.55v-6.48l10.28.57Z"/>
          <ellipse class="cls-4" cx="375.82" cy="240.52" rx="16.65" ry="20" transform="translate(-27.46 49.59) rotate(-7.28)"/>
          <path class="cls-12" d="m365.92,228.6s1.93,1.05,2.05,4.09l21.99-6.73s-.41-7.95-12.65-10.88c-12.24-2.92-17.21,8.22-17.21,8.22,0,0-3.89-3.01-9.19,1.64-5.3,4.66-2.24,14.16-2.24,14.16l15.85-5.2s2.26-1.01,1.4-5.31Z"/>
          <path class="cls-24" d="m349.17,235.47c-.18,0-.34-.13-.38-.32-.06-.31-1.34-7.68,2.45-11.14,1.94-1.77,4.84-2.16,8.63-1.17.79-1.74,5.02-10.01,13.98-10.34,9.94-.37,12.43,3.49,12.53,3.65.11.18.05.42-.13.53-.18.11-.42.05-.53-.13-.02-.03-2.41-3.64-11.85-3.29-9.46.35-13.39,10.07-13.43,10.17-.07.18-.27.28-.46.23-3.67-1.02-6.44-.72-8.23.91-3.48,3.17-2.23,10.36-2.21,10.43.04.21-.1.41-.31.45-.02,0-.05,0-.07,0Z"/>
          <path class="cls-14" d="m384.43,249.92h-2.92c-.21,0-.38-.17-.38-.38s.17-.38.38-.38h2.35l-3.99-9.91c-.08-.2.02-.42.21-.5.2-.08.42.02.5.21l4.2,10.43c.05.12.03.25-.04.36-.07.11-.19.17-.32.17Z"/>
          <path class="cls-16" d="m369.27,264.31h14.07v4.02s16.08-5.12,27.77-2.92c11.69,2.19,19.36,12.61,19.36,12.61l10.6-4.93s18.27,21.01,13.88,35.26l-110.89,63.03-11.69-52.25s-15.16-18.09-9.54-28.68c7.02-13.24,47-21.01,47-21.01l-.55-5.12Z"/>
          <circle class="cls-8" cx="355.68" cy="246.55" r="10.24" transform="translate(-65.95 344.12) rotate(-47.76)"/>
          <path class="cls-14" d="m355.68,253.95c-4.08,0-7.41-3.32-7.41-7.41s3.32-7.41,7.41-7.41,7.41,3.32,7.41,7.41-3.32,7.41-7.41,7.41Zm0-14.04c-3.66,0-6.64,2.98-6.64,6.64s2.98,6.64,6.64,6.64,6.64-2.98,6.64-6.64-2.98-6.64-6.64-6.64Z"/>
          <path class="cls-12" d="m386.66,227.11c-1.01-.33-2.02-.32-2.94,0l-13.07,4.62-13.07,4.62c-.92.32-1.71.95-2.29,1.85-1.06,1.64-2.29,4.59-.96,8.33,1.32,3.74,4.13,5.26,5.98,5.87,1.01.33,2.02.32,2.94,0l13.07-4.62,13.07-4.62c.92-.32,1.71-.95,2.29-1.85,1.06-1.64,2.29-4.59.96-8.33-1.32-3.74-4.13-5.26-5.98-5.87Z"/>
          <path class="cls-20" d="m389.96,225.95c-1.01-.33-2.02-.32-2.94,0l-13.07,4.62-13.07,4.62c-.92.32-1.71.95-2.29,1.85-1.06,1.64-2.29,4.59-.96,8.33,1.32,3.74,4.13,5.26,5.98,5.87,1.01.33,2.02.32,2.94,0l13.07-4.62,13.07-4.62c.92-.32,1.71-.95,2.29-1.85,1.06-1.64,2.29-4.59.96-8.33-1.32-3.74-4.13-5.26-5.98-5.87Z"/>
          <path class="cls-3" d="m373.87,230.6l-9.92,20.74c-.11-.03-.22-.06-.34-.1-1.02-.33-2.33-.95-3.52-2.06l7.88-16.5,5.9-2.09Z"/>
          <path class="cls-3" d="m387.62,225.79l-10.35,21.66-5.89,2.08,10.38-21.72,5.26-1.86c.2-.07.4-.13.61-.16Z"/>
          <path class="cls-3" d="m395.94,231.82c.16.45.28.89.37,1.32h0s-4.36,9.12-4.36,9.12l-5.89,2.08,7.68-16.08c.87.88,1.66,2.03,2.19,3.55Z"/>
          <path class="cls-14" d="m373.56,255.48c-2.08,0-3.32-1.81-3.34-1.83-.12-.18-.07-.41.11-.53.18-.12.41-.07.53.1.07.11,1.85,2.67,4.75.8.18-.11.42-.06.53.12.11.18.06.42-.12.53-.91.59-1.74.81-2.47.81Z"/>
          <path class="cls-14" d="m350.15,242.61c-.16,0-.32-.11-.37-.27l-4.27-13.83c-.66-2.15-.28-4.42,1.06-6.23,1.33-1.81,3.39-2.85,5.64-2.85,3.07,0,5.75,1.96,6.68,4.89l3.3,10.41c.06.2-.05.42-.25.48-.2.06-.42-.05-.48-.25l-3.3-10.41c-.83-2.6-3.21-4.35-5.95-4.35-2,0-3.83.92-5.02,2.53s-1.53,3.63-.94,5.54l4.27,13.83c.06.2-.05.42-.25.48-.04.01-.08.02-.11.02Z"/>
          <path class="cls-25" d="m344.84,224.85c-.13,0-.25-.06-.32-.18-.23-.35-5.48-8.66-.89-12.71,1.36-1.21,2.61-1.69,3.67-1.73.04-2.43,1.35-4.43,3.64-5.54.19-.09.42-.01.51.18.09.19.01.42-.18.51-2.7,1.31-3.19,3.52-3.2,4.9.74.13,1.35.49,1.78.95.88.93.99,2.19.25,2.93-.29.29-.68.37-1.05.23-.84-.33-1.56-1.78-1.71-3.39-.89.03-1.98.46-3.19,1.53-4.09,3.62.98,11.64,1.03,11.72.11.18.06.42-.12.53-.06.04-.14.06-.21.06Zm3.26-13.77c.17,1.39.78,2.43,1.21,2.59.08.03.14.03.23-.06.43-.43.31-1.25-.27-1.86-.29-.31-.69-.56-1.17-.68Z"/>
          <g class="cls-18">
            <g>
              <path class="cls-12" d="m287.04,329.56c-.1,0-.2-.04-.27-.11-.15-.15-.15-.39,0-.54,5.86-5.86,9.68-8.01,13.36-10.08,3.64-2.05,7.41-4.17,13.2-9.96,5.79-5.79,7.91-9.55,9.96-13.2,2.07-3.69,4.22-7.5,10.08-13.36,5.86-5.86,9.67-8.01,13.36-10.08,3.64-2.05,7.41-4.17,13.2-9.95,5.79-5.79,7.91-9.55,9.95-13.2,2.07-3.69,4.22-7.5,10.08-13.36,5.86-5.86,9.67-8.01,13.36-10.08,3.64-2.05,7.41-4.17,13.2-9.95.15-.15.39-.15.54,0,.15.15.15.39,0,.54-5.86,5.86-9.67,8.01-13.36,10.08-3.64,2.05-7.41,4.17-13.2,9.95-5.79,5.79-7.91,9.55-9.95,13.2-2.07,3.69-4.22,7.5-10.08,13.36-5.86,5.86-9.68,8.01-13.36,10.08-3.64,2.05-7.41,4.17-13.2,9.95-5.79,5.79-7.91,9.55-9.96,13.2-2.07,3.69-4.22,7.5-10.08,13.36-5.86,5.86-9.68,8.01-13.36,10.08-3.64,2.05-7.41,4.17-13.2,9.96-.08.08-.17.11-.27.11Z"/>
              <path class="cls-12" d="m301.21,343.72c-.1,0-.2-.04-.27-.11-.15-.15-.15-.39,0-.54,5.86-5.86,9.68-8.01,13.36-10.08,3.64-2.05,7.41-4.17,13.2-9.96,5.79-5.79,7.91-9.55,9.96-13.2,2.07-3.69,4.22-7.5,10.08-13.36,5.86-5.86,9.68-8.01,13.36-10.08,3.64-2.05,7.41-4.17,13.2-9.95,5.79-5.79,7.91-9.55,9.95-13.2,2.07-3.69,4.22-7.5,10.08-13.36,5.86-5.86,9.67-8.01,13.36-10.08,3.64-2.05,7.41-4.17,13.2-9.95.15-.15.39-.15.54,0,.15.15.15.39,0,.54-5.86,5.86-9.67,8.01-13.36,10.08-3.64,2.05-7.41,4.17-13.2,9.95-5.79,5.79-7.91,9.55-9.95,13.2-2.07,3.69-4.22,7.5-10.08,13.36-5.86,5.86-9.67,8.01-13.36,10.08-3.64,2.05-7.41,4.17-13.2,9.95-5.79,5.79-7.91,9.55-9.96,13.2-2.07,3.69-4.22,7.5-10.08,13.36-5.86,5.86-9.68,8.01-13.36,10.08-3.64,2.05-7.41,4.17-13.2,9.96-.08.08-.17.11-.27.11Z"/>
              <path class="cls-12" d="m315.37,357.89c-.1,0-.2-.04-.27-.11-.15-.15-.15-.39,0-.54,5.86-5.86,9.68-8.01,13.36-10.08,3.64-2.05,7.41-4.17,13.2-9.96,5.79-5.79,7.91-9.55,9.96-13.2,2.07-3.69,4.22-7.5,10.08-13.36,5.86-5.86,9.67-8.01,13.36-10.08,3.64-2.05,7.41-4.17,13.2-9.95,5.79-5.79,7.91-9.55,9.95-13.2,2.07-3.69,4.22-7.5,10.08-13.36,5.86-5.86,9.67-8.01,13.36-10.08,3.64-2.05,7.41-4.17,13.2-9.95.15-.15.39-.15.54,0,.15.15.15.39,0,.54-5.86,5.86-9.67,8.01-13.36,10.08-3.64,2.05-7.41,4.17-13.2,9.95-5.79,5.79-7.91,9.55-9.95,13.2-2.07,3.69-4.22,7.5-10.08,13.36-5.86,5.86-9.67,8.01-13.36,10.08-3.64,2.05-7.41,4.17-13.2,9.95-5.79,5.79-7.91,9.55-9.96,13.2-2.07,3.69-4.22,7.5-10.08,13.36-5.86,5.86-9.68,8.01-13.36,10.08-3.64,2.05-7.41,4.17-13.2,9.96-.08.08-.17.11-.27.11Z"/>
              <path class="cls-12" d="m329.54,372.05c-.1,0-.2-.04-.27-.11-.15-.15-.15-.39,0-.54,5.86-5.86,9.68-8.01,13.36-10.08,3.64-2.05,7.41-4.17,13.2-9.96,5.79-5.79,7.91-9.55,9.96-13.2,2.07-3.69,4.22-7.5,10.08-13.36,5.86-5.86,9.67-8.01,13.36-10.08,3.64-2.05,7.41-4.17,13.2-9.95,5.79-5.79,7.91-9.55,9.95-13.2,2.07-3.69,4.22-7.5,10.08-13.36,5.86-5.86,9.67-8.01,13.36-10.08,3.64-2.05,7.41-4.17,13.2-9.95.15-.15.39-.15.54,0,.15.15.15.39,0,.54-5.86,5.86-9.67,8.01-13.36,10.08-3.64,2.05-7.41,4.17-13.2,9.95-5.79,5.79-7.91,9.55-9.95,13.2-2.07,3.69-4.22,7.5-10.08,13.36-5.86,5.86-9.68,8.01-13.36,10.08-3.64,2.05-7.41,4.17-13.2,9.95-5.79,5.79-7.91,9.55-9.96,13.2-2.07,3.69-4.22,7.5-10.08,13.36-5.86,5.86-9.68,8.01-13.36,10.08-3.64,2.05-7.41,4.17-13.2,9.96-.08.08-.17.11-.27.11Z"/>
              <path class="cls-12" d="m343.7,386.22c-.1,0-.2-.04-.27-.11-.15-.15-.15-.39,0-.54,5.86-5.86,9.68-8.01,13.36-10.08,3.64-2.05,7.41-4.17,13.2-9.96,5.79-5.79,7.91-9.55,9.96-13.2,2.07-3.69,4.22-7.5,10.08-13.36,5.86-5.86,9.68-8.01,13.36-10.08,3.64-2.05,7.41-4.17,13.2-9.95,5.79-5.79,7.91-9.55,9.95-13.2,2.07-3.69,4.22-7.5,10.08-13.36,5.86-5.86,9.67-8.01,13.36-10.08,3.64-2.05,7.41-4.17,13.2-9.95.15-.15.39-.15.54,0,.15.15.15.39,0,.54-5.86,5.86-9.67,8.01-13.36,10.08-3.64,2.05-7.41,4.17-13.2,9.95-5.79,5.79-7.91,9.55-9.95,13.2-2.07,3.69-4.22,7.5-10.08,13.36-5.86,5.86-9.67,8.01-13.36,10.08-3.64,2.05-7.41,4.17-13.2,9.95-5.79,5.79-7.91,9.55-9.96,13.2-2.07,3.69-4.22,7.5-10.08,13.36-5.86,5.86-9.68,8.01-13.36,10.08-3.64,2.05-7.41,4.17-13.2,9.96-.08.08-.17.11-.27.11Z"/>
              <path class="cls-12" d="m357.87,400.39c-.1,0-.2-.04-.27-.11-.15-.15-.15-.39,0-.54,5.86-5.86,9.68-8.01,13.36-10.08,3.64-2.05,7.41-4.17,13.2-9.96,5.79-5.79,7.91-9.55,9.96-13.2,2.07-3.69,4.22-7.5,10.08-13.36,5.86-5.86,9.67-8.01,13.36-10.08,3.64-2.05,7.41-4.17,13.2-9.95,5.79-5.79,7.91-9.55,9.95-13.2,2.07-3.69,4.22-7.5,10.08-13.36,5.86-5.86,9.67-8.01,13.36-10.08,3.64-2.05,7.41-4.17,13.2-9.95.15-.15.39-.15.54,0,.15.15.15.39,0,.54-5.86,5.86-9.67,8.01-13.36,10.08-3.64,2.05-7.41,4.17-13.2,9.95-5.79,5.79-7.91,9.55-9.95,13.2-2.07,3.69-4.22,7.5-10.08,13.36-5.86,5.86-9.67,8.01-13.36,10.08-3.64,2.05-7.41,4.17-13.2,9.95-5.79,5.79-7.91,9.55-9.96,13.2-2.07,3.69-4.22,7.5-10.08,13.36-5.86,5.86-9.68,8.01-13.36,10.08-3.64,2.05-7.41,4.17-13.2,9.96-.08.08-.17.11-.27.11Z"/>
            </g>
          </g>
          <path class="cls-2" d="m454.95,308.34l-9.34,5.3c-.2-21.37-15.14-35.63-15.14-35.63l10.59-4.94s18.27,21.01,13.88,35.27Z"/>
          <path class="cls-13" d="m430.47,278.01l-54.65,28.13-17.88-16.81,17.88,10.42,50.76-25.96c2.5,2.33,3.89,4.22,3.89,4.22Z"/>
          <path class="cls-13" d="m387.95,346.42s-23.07,7.02-30.92,0c-7.86-7.02-24.66-27.3-24.66-27.3,0,0,15.42,25.87,23.38,31.61,10.86,7.82,20.07,2.59,20.07,2.59l12.13-6.89Z"/>
          <path class="cls-13" d="m538.07,395.34s-37.73-67.64-54.49-76.23c-16.76-8.59-68.17,11.69-68.17,11.69,0,0,46.86-27.46,69.68-17.16,21.15,9.54,58.72,76.93,58.72,76.93l-5.74,4.77Z"/>
        </g>
        <g>
          <g>
            <path class="cls-21" d="m472.1,165.01c5.95,11.91,1.12,26.39-10.79,32.33-11.91,5.95-26.39,1.12-32.33-10.79-5.95-11.91-1.12-26.39,10.79-32.33,11.91-5.95,26.39-1.12,32.33,10.79Z"/>
            <path class="cls-12" d="m448.97,159.85c-.05,3.8-9.59,4.15-9.68.23-.09-3.91,9.73-3.23,9.68-.23Z"/>
            <path class="cls-12" d="m462.05,166.6c-4.38,4.12-5.31,1.23-8.97,4.48-3.65,3.24,2.85,2.88-1.33,11.38-4.18,8.5-9.45,10.39-5.54,17.04-7.21-1.32-13.73-5.89-17.26-12.95-2.96-5.92-3.25-12.47-1.34-18.29.93-.55,2.03-.85,3.27-.64,4.48.72,7.36,4.69,11.37,1.91,4.02-2.77,9.1-6.97,12.59-6.21,3.48.76,3.23-3.36,5.71-4.6,2.47-1.23,5.87,3.76,1.49,7.88Z"/>
            <path class="cls-12" d="m474.42,179.05c-1.05,7.62-5.72,14.6-13.11,18.29-2.03,1.02-4.14,1.71-6.27,2.12-.53-2.4-.49-5.27,1.75-7.32,4.59-4.22,2.63-7.34,2.94-10.61.31-3.26.67-7.67,2.78-7.31,2.11.36,1.85,7.32,4.68,7.32,1.71,0,4.63-1.83,7.22-2.49Z"/>
            <path class="cls-12" d="m467.95,177.72c-2.51.14-3.18-6.15-.59-6.39s2.57,6.28.59,6.39Z"/>
            <path class="cls-12" d="m468.3,168.22c-1.71.09-2.16-4.17-.4-4.34,1.75-.16,1.75,4.26.4,4.34Z"/>
          </g>
          <path class="cls-2" d="m397.11,204.33c-1.17,0-1.92-.25-2.18-.78-1.97-3.95,23.87-18.67,31.84-23.09l.37.67c-21.87,12.13-32.42,20.28-31.52,22.07,1.3,2.6,25.3-5.77,57.66-21.94,14.75-7.37,28.31-14.9,38.19-21.21,11.1-7.09,14.47-10.74,13.99-11.72-.89-1.79-13.74,1.74-36.58,11.94l-.31-.7c8.32-3.72,35.61-15.53,37.58-11.59.9,1.81-3.89,6.09-14.26,12.71-9.9,6.32-23.48,13.87-38.26,21.25-23.39,11.68-48.87,22.37-56.51,22.37Z"/>
        </g>
        <path class="cls-12" d="m337.77,174.34s-12.77,11.17-21.25,36.93c-8.48,25.76-9.17,55.22-11.43,55.53s-2.82-14.51-5.22-13.09c-2.41,1.42-1.53,8.56-3.06,8.9-1.52.34-1.41-3.22-2.57-2.79-1.16.43-1.33,13.87-6.07,13.41-4.73-.46-1.53-23.99,10.14-51.44,11.66-27.45,35.96-50.32,35.96-50.32l3.5,2.87Z"/>
        <polygon class="cls-11" points="331.95 166.95 347.96 153.64 338.65 169.88 351.48 169.79 342.36 175.79 349.33 195.52 335.58 180.9 328.01 195.91 330.11 180.48 307.78 188.73 325.58 173.09 314.32 161.02 331.95 166.95"/>
        <path class="cls-10" d="m306.74,316.13c7.32,14.45,0,31.14,3.29,47.3,3.29,16.17,19.82,29.6,33.34,35.62,13.52,6.03,23.91,23.02,15.43,30.42-8.48,7.4-21.64,1.17-29.86-10.51-8.22-11.68-22.47-10.31-33.43-17.71-10.96-7.4-12.18-24.4-6.58-36.11,10.65-22.27-6.03-40.41-1.1-49.01,4.93-8.6,15.07-7.57,18.91,0Z"/>
        <path class="cls-26" d="m268.67,313.68c-8.33,1.5-4.46,12.39,0,19.33,4.46,6.93-1.24,19.5,3.22,20.15,4.46.65,11.86-2.13,11.88-14.21.02-12.07-10.89-26.03-15.1-25.27Z"/>
        <path class="cls-27" d="m276.51,290.5c-4.08.52-3.81,17.77,2.17,17,5.98-.76,1.9-17.53-2.17-17Z"/>
        <path class="cls-7" d="m526.78,277.87c-8.56,3.53,1.84,18.91,10.17,35.49,14.12,28.11,2.15,50.92,13.51,53.98,11.36,3.06,17.65-11.4,13.23-24.08-4.42-12.68,6.96-9.83,6.01-22.77-.95-12.94-23.27-53.82-30.28-52.52-7.01,1.3,3.24,14.74-.76,17.72-4,2.97-4.83-10.72-11.88-7.81Z"/>
        <path class="cls-6" d="m548.68,240.97c-10.55,4.01.54,33.68,9.76,26.96,9.22-6.72-1.71-30.02-9.76-26.96Z"/>
        <path class="cls-15" d="m528.3,237.4c-5.27,2.01.27,16.84,4.88,13.48,4.61-3.36-.86-15.01-4.88-13.48Z"/>
      </g>
    </g>
  </g>
</svg>