{
	"asset":{
		"generator":"Khronos glTF Blender I/O v3.5.30",
		"version":"2.0"
	},
	"scene":0,
	"scenes":[
		{
			"name":"Scene",
			"nodes":[
				0,
				1,
				2
			]
		}
	],
	"nodes":[
		{
			"mesh":0,
			"name":"Text.002",
			"scale":[
				0.0353795625269413,
				0.01506513450294733,
				0.0353795625269413
			]
		},
		{
			"mesh":1,
			"name":"Curve.046",
			"scale":[
				1.2396095991134644,
				1.2396095991134644,
				1.2396095991134644
			],
			"translation":[
				0,
				-0.0015236831968650222,
				0
			]
		},
		{
			"mesh":2,
			"name":"Curve.045",
			"scale":[
				1.2629681825637817,
				1.485344409942627,
				1.2629681825637817
			],
			"translation":[
				0,
				-0.0029099280945956707,
				0
			]
		}
	],
	"animations":[
		{
			"channels":[
				{
					"sampler":0,
					"target":{
						"node":0,
						"path":"scale"
					}
				}
			],
			"name":"Text.002Action",
			"samplers":[
				{
					"input":12,
					"interpolation":"LINEAR",
					"output":13
				}
			]
		},
		{
			"channels":[
				{
					"sampler":0,
					"target":{
						"node":2,
						"path":"scale"
					}
				}
			],
			"name":"Curve.045Action",
			"samplers":[
				{
					"input":12,
					"interpolation":"LINEAR",
					"output":14
				}
			]
		}
	],
	"materials":[
		{
			"doubleSided":true,
			"name":"Material.097",
			"pbrMetallicRoughness":{
				"baseColorFactor":[
					0.11697071045637131,
					0.09084172546863556,
					0.17144113779067993,
					1
				],
				"metallicFactor":0,
				"roughnessFactor":0.5
			}
		}
	],
	"meshes":[
		{
			"name":"Text.002",
			"primitives":[
				{
					"attributes":{
						"POSITION":0,
						"TEXCOORD_0":1,
						"NORMAL":2
					},
					"indices":3
				}
			]
		},
		{
			"name":"Curve.039",
			"primitives":[
				{
					"attributes":{
						"POSITION":4,
						"TEXCOORD_0":5,
						"NORMAL":6
					},
					"indices":7,
					"material":0
				}
			]
		},
		{
			"name":"Curve.297",
			"primitives":[
				{
					"attributes":{
						"POSITION":8,
						"TEXCOORD_0":9,
						"NORMAL":10
					},
					"indices":11
				}
			]
		}
	],
	"accessors":[
		{
			"bufferView":0,
			"componentType":5126,
			"count":6534,
			"max":[
				1.1830238103866577,
				0.03400000184774399,
				0.3045184016227722
			],
			"min":[
				-1.1830235719680786,
				-0.03400000184774399,
				-0.3045184016227722
			],
			"type":"VEC3"
		},
		{
			"bufferView":1,
			"componentType":5126,
			"count":6534,
			"type":"VEC2"
		},
		{
			"bufferView":2,
			"componentType":5126,
			"count":6534,
			"type":"VEC3"
		},
		{
			"bufferView":3,
			"componentType":5123,
			"count":32988,
			"type":"SCALAR"
		},
		{
			"bufferView":4,
			"componentType":5126,
			"count":210,
			"max":[
				0.04616261646151543,
				0.0010000000474974513,
				0.012536739930510521
			],
			"min":[
				-0.04616263136267662,
				-0.0010000000474974513,
				-0.01253674365580082
			],
			"type":"VEC3"
		},
		{
			"bufferView":5,
			"componentType":5126,
			"count":210,
			"type":"VEC2"
		},
		{
			"bufferView":6,
			"componentType":5126,
			"count":210,
			"type":"VEC3"
		},
		{
			"bufferView":7,
			"componentType":5123,
			"count":612,
			"type":"SCALAR"
		},
		{
			"bufferView":8,
			"componentType":5126,
			"count":689,
			"max":[
				0.04616261646151543,
				0.002308113034814596,
				0.01272578164935112
			],
			"min":[
				-0.04616263136267662,
				-6.653927266597748e-05,
				-0.01253674365580082
			],
			"type":"VEC3"
		},
		{
			"bufferView":9,
			"componentType":5126,
			"count":689,
			"type":"VEC2"
		},
		{
			"bufferView":10,
			"componentType":5126,
			"count":689,
			"type":"VEC3"
		},
		{
			"bufferView":11,
			"componentType":5123,
			"count":1317,
			"type":"SCALAR"
		},
		{
			"bufferView":12,
			"componentType":5126,
			"count":72,
			"max":[
				3
			],
			"min":[
				0.041666666666666664
			],
			"type":"SCALAR"
		},
		{
			"bufferView":13,
			"componentType":5126,
			"count":72,
			"type":"VEC3"
		},
		{
			"bufferView":14,
			"componentType":5126,
			"count":72,
			"type":"VEC3"
		}
	],
	"bufferViews":[
		{
			"buffer":0,
			"byteLength":78408,
			"byteOffset":0,
			"target":34962
		},
		{
			"buffer":0,
			"byteLength":52272,
			"byteOffset":78408,
			"target":34962
		},
		{
			"buffer":0,
			"byteLength":78408,
			"byteOffset":130680,
			"target":34962
		},
		{
			"buffer":0,
			"byteLength":65976,
			"byteOffset":209088,
			"target":34963
		},
		{
			"buffer":0,
			"byteLength":2520,
			"byteOffset":275064,
			"target":34962
		},
		{
			"buffer":0,
			"byteLength":1680,
			"byteOffset":277584,
			"target":34962
		},
		{
			"buffer":0,
			"byteLength":2520,
			"byteOffset":279264,
			"target":34962
		},
		{
			"buffer":0,
			"byteLength":1224,
			"byteOffset":281784,
			"target":34963
		},
		{
			"buffer":0,
			"byteLength":8268,
			"byteOffset":283008,
			"target":34962
		},
		{
			"buffer":0,
			"byteLength":5512,
			"byteOffset":291276,
			"target":34962
		},
		{
			"buffer":0,
			"byteLength":8268,
			"byteOffset":296788,
			"target":34962
		},
		{
			"buffer":0,
			"byteLength":2634,
			"byteOffset":305056,
			"target":34963
		},
		{
			"buffer":0,
			"byteLength":288,
			"byteOffset":307692
		},
		{
			"buffer":0,
			"byteLength":864,
			"byteOffset":307980
		},
		{
			"buffer":0,
			"byteLength":864,
			"byteOffset":308844
		}
	],
	"buffers":[
		{
			"byteLength":309708,
			"uri":"data:application/octet-stream;base64,"
		}
	]
}
